<svg xmlns="http://www.w3.org/2000/svg" xmlns:xlink="http://www.w3.org/1999/xlink" xmlns:lucid="lucid" width="1820" height="1131"><g transform="translate(-40 -36.66666666666667)" lucid:page-tab-id="0_0"><path d="M60 126c0-3.3 2.7-6 6-6h348c3.3 0 6 2.7 6 6v168c0 3.3-2.7 6-6 6H66c-3.3 0-6-2.7-6-6z" stroke="#5e5e5e" stroke-width="3" fill="#fff"/><use xlink:href="#a" transform="matrix(1,0,0,1,72,132) translate(0 17.77777777777778)"/><use xlink:href="#b" transform="matrix(1,0,0,1,72,132) translate(24.691358024691358 17.77777777777778)"/><use xlink:href="#c" transform="matrix(1,0,0,1,72,132) translate(0 44.44444444444444)"/><use xlink:href="#d" transform="matrix(1,0,0,1,72,132) translate(24.691358024691358 44.44444444444444)"/><use xlink:href="#e" transform="matrix(1,0,0,1,72,132) translate(0 71.11111111111111)"/><use xlink:href="#f" transform="matrix(1,0,0,1,72,132) translate(24.691358024691358 71.11111111111111)"/><path d="M465.24 300h135.5M465.27 300h-1.03" stroke="#5e5e5e" stroke-width="2" fill="none"/><path d="M616 300l-14.25 4.64v-9.28z" stroke="#5e5e5e" stroke-width="2" fill="#5e5e5e"/><path d="M478.25 300h-19M478.22 300h1.03" stroke="#5e5e5e" stroke-width="2" fill="none"/><path d="M444 300l14.25-4.64v9.28z" stroke="#5e5e5e" stroke-width="2" fill="#5e5e5e"/><path d="M640 126c0-3.3 2.7-6 6-6h348c3.3 0 6 2.7 6 6v168c0 3.3-2.7 6-6 6H646c-3.3 0-6-2.7-6-6z" stroke="#5e5e5e" stroke-width="3" fill="#fff"/><use xlink:href="#g" transform="matrix(1,0,0,1,652,132) translate(0 17.77777777777777)"/><use xlink:href="#h" transform="matrix(1,0,0,1,652,132) translate(24.691358024691347 17.77777777777777)"/><use xlink:href="#i" transform="matrix(1,0,0,1,652,132) translate(0 44.44444444444443)"/><use xlink:href="#j" transform="matrix(1,0,0,1,652,132) translate(24.691358024691347 44.44444444444443)"/><use xlink:href="#k" transform="matrix(1,0,0,1,652,132) translate(0 71.11111111111109)"/><use xlink:href="#l" transform="matrix(1,0,0,1,652,132) translate(24.691358024691347 71.11111111111109)"/><use xlink:href="#m" transform="matrix(1,0,0,1,652,132) translate(76.41975308641972 71.11111111111109)"/><use xlink:href="#n" transform="matrix(1,0,0,1,652,132) translate(112.16049382716045 71.11111111111109)"/><use xlink:href="#o" transform="matrix(1,0,0,1,652,132) translate(0 97.77777777777774)"/><use xlink:href="#p" transform="matrix(1,0,0,1,652,132) translate(24.691358024691347 97.77777777777774)"/><use xlink:href="#q" transform="matrix(1,0,0,1,652,132) translate(85.12345679012341 97.77777777777774)"/><use xlink:href="#r" transform="matrix(1,0,0,1,652,132) translate(0 124.4444444444444)"/><use xlink:href="#s" transform="matrix(1,0,0,1,652,132) translate(24.691358024691347 124.4444444444444)"/><path d="M460 126c0-3.3 2.7-6 6-6h128c3.3 0 6 2.7 6 6v168c0 3.3-2.7 6-6 6H466c-3.3 0-6-2.7-6-6z" stroke="#000" stroke-opacity="0" stroke-width="3" fill="#fff" fill-opacity="0"/><use xlink:href="#t" transform="matrix(1,0,0,1,465,125) translate(0 18.218417777777773)"/><use xlink:href="#u" transform="matrix(1,0,0,1,465,125) translate(0 41.32952888888888)"/><use xlink:href="#v" transform="matrix(1,0,0,1,465,125) translate(19.75308641975309 41.32952888888888)"/><use xlink:href="#w" transform="matrix(1,0,0,1,465,125) translate(0 62.662862222222216)"/><use xlink:href="#x" transform="matrix(1,0,0,1,465,125) translate(19.75308641975309 62.662862222222216)"/><use xlink:href="#y" transform="matrix(1,0,0,1,465,125) translate(0 83.99619555555556)"/><use xlink:href="#z" transform="matrix(1,0,0,1,465,125) translate(19.75308641975309 83.99619555555556)"/><use xlink:href="#A" transform="matrix(1,0,0,1,465,125) translate(61.135802469135804 83.99619555555556)"/><use xlink:href="#B" transform="matrix(1,0,0,1,465,125) translate(0 105.32952888888889)"/><use xlink:href="#C" transform="matrix(1,0,0,1,465,125) translate(0 126.66286222222223)"/><use xlink:href="#D" transform="matrix(1,0,0,1,465,125) translate(19.75308641975309 126.66286222222223)"/><use xlink:href="#E" transform="matrix(1,0,0,1,465,125) translate(0 147.99619555555557)"/><use xlink:href="#F" transform="matrix(1,0,0,1,465,125) translate(0 169.32952888888892)"/><use xlink:href="#G" transform="matrix(1,0,0,1,465,125) translate(19.75308641975309 169.32952888888892)"/><path d="M60 406c0-3.3 2.7-6 6-6h348c3.3 0 6 2.7 6 6v168c0 3.3-2.7 6-6 6H66c-3.3 0-6-2.7-6-6z" stroke="#5e5e5e" stroke-width="3" fill="#fff"/><use xlink:href="#g" transform="matrix(1,0,0,1,72,412) translate(0 17.77777777777777)"/><use xlink:href="#h" transform="matrix(1,0,0,1,72,412) translate(24.691358024691347 17.77777777777777)"/><use xlink:href="#i" transform="matrix(1,0,0,1,72,412) translate(0 44.44444444444443)"/><use xlink:href="#j" transform="matrix(1,0,0,1,72,412) translate(24.691358024691347 44.44444444444443)"/><use xlink:href="#k" transform="matrix(1,0,0,1,72,412) translate(0 71.11111111111109)"/><use xlink:href="#l" transform="matrix(1,0,0,1,72,412) translate(24.691358024691347 71.11111111111109)"/><use xlink:href="#m" transform="matrix(1,0,0,1,72,412) translate(76.41975308641972 71.11111111111109)"/><use xlink:href="#n" transform="matrix(1,0,0,1,72,412) translate(112.16049382716045 71.11111111111109)"/><use xlink:href="#o" transform="matrix(1,0,0,1,72,412) translate(0 97.77777777777774)"/><use xlink:href="#p" transform="matrix(1,0,0,1,72,412) translate(24.691358024691347 97.77777777777774)"/><use xlink:href="#q" transform="matrix(1,0,0,1,72,412) translate(85.12345679012341 97.77777777777774)"/><use xlink:href="#r" transform="matrix(1,0,0,1,72,412) translate(0 124.4444444444444)"/><use xlink:href="#s" transform="matrix(1,0,0,1,72,412) translate(24.691358024691347 124.4444444444444)"/><path d="M476.4 579.17H600M476.44 579.17h-1.03" stroke="#5e5e5e" stroke-width="2" fill="none"/><path d="M615.26 579.17L601 583.8v-9.27z" stroke="#5e5e5e" stroke-width="2" fill="#5e5e5e"/><path d="M477.5 579.17h-19M477.47 579.17h1.03" stroke="#5e5e5e" stroke-width="2" fill="none"/><path d="M443.24 579.17l14.26-4.64v9.27z" stroke="#5e5e5e" stroke-width="2" fill="#5e5e5e"/><path d="M640 406c0-3.3 2.7-6 6-6h348c3.3 0 6 2.7 6 6v168c0 3.3-2.7 6-6 6H646c-3.3 0-6-2.7-6-6z" stroke="#5e5e5e" stroke-width="3" fill="#fff"/><use xlink:href="#k" transform="matrix(1,0,0,1,652,412) translate(0 17.77777777777777)"/><use xlink:href="#l" transform="matrix(1,0,0,1,652,412) translate(24.691358024691347 17.77777777777777)"/><use xlink:href="#m" transform="matrix(1,0,0,1,652,412) translate(76.41975308641972 17.77777777777777)"/><use xlink:href="#n" transform="matrix(1,0,0,1,652,412) translate(112.16049382716045 17.77777777777777)"/><use xlink:href="#o" transform="matrix(1,0,0,1,652,412) translate(0 44.44444444444443)"/><use xlink:href="#p" transform="matrix(1,0,0,1,652,412) translate(24.691358024691347 44.44444444444443)"/><use xlink:href="#q" transform="matrix(1,0,0,1,652,412) translate(85.12345679012341 44.44444444444443)"/><use xlink:href="#r" transform="matrix(1,0,0,1,652,412) translate(0 71.11111111111109)"/><use xlink:href="#s" transform="matrix(1,0,0,1,652,412) translate(24.691358024691347 71.11111111111109)"/><path d="M460 466c0-3.3 2.7-6 6-6h128c3.3 0 6 2.7 6 6v8c0 3.3-2.7 6-6 6H466c-3.3 0-6-2.7-6-6z" stroke="#000" stroke-opacity="0" stroke-width="3" fill="#fff" fill-opacity="0"/><use xlink:href="#H" transform="matrix(1,0,0,1,465,465) translate(0 17.77777777777777)"/><path d="M1100 406c0-3.3 2.7-6 6-6h208c3.3 0 6 2.7 6 6v168c0 3.3-2.7 6-6 6h-208c-3.3 0-6-2.7-6-6z" stroke="#5e5e5e" stroke-width="3" fill="#fff"/><use xlink:href="#g" transform="matrix(1,0,0,1,1112,412) translate(0 17.77777777777777)"/><use xlink:href="#h" transform="matrix(1,0,0,1,1112,412) translate(24.691358024691347 17.77777777777777)"/><use xlink:href="#i" transform="matrix(1,0,0,1,1112,412) translate(0 44.44444444444443)"/><use xlink:href="#j" transform="matrix(1,0,0,1,1112,412) translate(24.691358024691347 44.44444444444443)"/><use xlink:href="#H" transform="matrix(1,0,0,1,1112,412) translate(0 71.11111111111109)"/><path d="M1100 127.67c0-3.32 2.7-6 6-6h208c3.3 0 6 2.68 6 6v168c0 3.3-2.7 6-6 6h-208c-3.3 0-6-2.7-6-6z" stroke="#5e5e5e" stroke-width="3" fill="#fff"/><use xlink:href="#a" transform="matrix(1,0,0,1,1112,133.66666666666666) translate(0 17.77777777777778)"/><use xlink:href="#b" transform="matrix(1,0,0,1,1112,133.66666666666666) translate(24.691358024691358 17.77777777777778)"/><use xlink:href="#c" transform="matrix(1,0,0,1,1112,133.66666666666666) translate(0 44.44444444444444)"/><use xlink:href="#d" transform="matrix(1,0,0,1,1112,133.66666666666666) translate(24.691358024691358 44.44444444444444)"/><use xlink:href="#e" transform="matrix(1,0,0,1,1112,133.66666666666666) translate(0 71.11111111111111)"/><use xlink:href="#I" transform="matrix(1,0,0,1,1112,133.66666666666666) translate(24.691358024691358 71.11111111111111)"/><use xlink:href="#J" transform="matrix(1,0,0,1,1112,133.66666666666666) translate(0 97.77777777777777)"/><path d="M1100 66c0-3.3 2.7-6 6-6h128c3.3 0 6 2.7 6 6v51.33c0 3.32-2.7 6-6 6h-128c-3.3 0-6-2.68-6-6z" stroke="#000" stroke-opacity="0" stroke-width="3" fill="#fff" fill-opacity="0"/><g><use xlink:href="#K" transform="matrix(1,0,0,1,1105,65) translate(5.777777777777779 31.27777777777778)"/><use xlink:href="#L" transform="matrix(1,0,0,1,1105,65) translate(68.49382716049382 31.27777777777778)"/></g><path d="M1210 397.5v-75.83" stroke="#5e5e5e" stroke-width="2" fill="none"/><path d="M1211 398.5h-2v-1.03h2z" fill="#5e5e5e"/><path d="M1210 306.4l4.64 14.27h-9.28z" stroke="#5e5e5e" stroke-width="2" fill="#5e5e5e"/><path d="M1380 66c0-3.3 2.7-6 6-6h128c3.3 0 6 2.7 6 6v51.33c0 3.32-2.7 6-6 6h-128c-3.3 0-6-2.68-6-6z" stroke="#000" stroke-opacity="0" stroke-width="3" fill="#fff" fill-opacity="0"/><g><use xlink:href="#M" transform="matrix(1,0,0,1,1385,65) translate(6.364197530864203 31.27777777777778)"/><use xlink:href="#L" transform="matrix(1,0,0,1,1385,65) translate(67.90740740740742 31.27777777777778)"/></g><path d="M1620 406c0-3.3 2.7-6 6-6h208c3.3 0 6 2.7 6 6v168c0 3.3-2.7 6-6 6h-208c-3.3 0-6-2.7-6-6zM1620 127.67c0-3.32 2.7-6 6-6h208c3.3 0 6 2.68 6 6v168c0 3.3-2.7 6-6 6h-208c-3.3 0-6-2.7-6-6z" stroke="#5e5e5e" stroke-width="3" fill="#fff"/><path d="M1620 66c0-3.3 2.7-6 6-6h128c3.3 0 6 2.7 6 6v51.33c0 3.32-2.7 6-6 6h-128c-3.3 0-6-2.68-6-6z" stroke="#000" stroke-opacity="0" stroke-width="3" fill="#fff" fill-opacity="0"/><g><use xlink:href="#N" transform="matrix(1,0,0,1,1625,65) translate(29.23456790123457 31.27777777777778)"/></g><path d="M460 506c0-3.3 2.7-6 6-6h128c3.3 0 6 2.7 6 6v8c0 3.3-2.7 6-6 6H466c-3.3 0-6-2.7-6-6z" stroke="#000" stroke-opacity="0" stroke-width="3" fill="#fff" fill-opacity="0"/><g><use xlink:href="#O" transform="matrix(1,0,0,1,465,505) translate(0 17.77777777777777)"/></g><path d="M1620 406c0-3.3 2.7-6 6-6h208c3.3 0 6 2.7 6 6v168c0 3.3-2.7 6-6 6h-208c-3.3 0-6-2.7-6-6z" stroke="#5e5e5e" stroke-width="3" fill="#fff"/><g><use xlink:href="#k" transform="matrix(1,0,0,1,1632,412) translate(0 17.77777777777777)"/><use xlink:href="#l" transform="matrix(1,0,0,1,1632,412) translate(24.691358024691347 17.77777777777777)"/><use xlink:href="#m" transform="matrix(1,0,0,1,1632,412) translate(76.41975308641972 17.77777777777777)"/><use xlink:href="#n" transform="matrix(1,0,0,1,1632,412) translate(112.16049382716045 17.77777777777777)"/><use xlink:href="#o" transform="matrix(1,0,0,1,1632,412) translate(0 44.44444444444443)"/><use xlink:href="#p" transform="matrix(1,0,0,1,1632,412) translate(24.691358024691347 44.44444444444443)"/><use xlink:href="#q" transform="matrix(1,0,0,1,1632,412) translate(85.12345679012341 44.44444444444443)"/><use xlink:href="#r" transform="matrix(1,0,0,1,1632,412) translate(0 71.11111111111109)"/><use xlink:href="#P" transform="matrix(1,0,0,1,1632,412) translate(24.691358024691347 71.11111111111109)"/><use xlink:href="#Q" transform="matrix(1,0,0,1,1632,412) translate(0 97.77777777777774)"/><use xlink:href="#R" transform="matrix(1,0,0,1,1632,412) translate(0 124.4444444444444)"/></g><path d="M60 682.83c0-3.3 2.7-6 6-6h348c3.3 0 6 2.7 6 6v168c0 3.32-2.7 6-6 6H66c-3.3 0-6-2.68-6-6z" stroke="#5e5e5e" stroke-width="3" fill="#fff"/><g><use xlink:href="#k" transform="matrix(1,0,0,1,72,688.8333333333335) translate(0 17.77777777777777)"/><use xlink:href="#l" transform="matrix(1,0,0,1,72,688.8333333333335) translate(24.691358024691347 17.77777777777777)"/><use xlink:href="#m" transform="matrix(1,0,0,1,72,688.8333333333335) translate(76.41975308641972 17.77777777777777)"/><use xlink:href="#n" transform="matrix(1,0,0,1,72,688.8333333333335) translate(112.16049382716045 17.77777777777777)"/><use xlink:href="#o" transform="matrix(1,0,0,1,72,688.8333333333335) translate(0 44.44444444444443)"/><use xlink:href="#p" transform="matrix(1,0,0,1,72,688.8333333333335) translate(24.691358024691347 44.44444444444443)"/><use xlink:href="#q" transform="matrix(1,0,0,1,72,688.8333333333335) translate(85.12345679012341 44.44444444444443)"/><use xlink:href="#r" transform="matrix(1,0,0,1,72,688.8333333333335) translate(0 71.11111111111109)"/><use xlink:href="#s" transform="matrix(1,0,0,1,72,688.8333333333335) translate(24.691358024691347 71.11111111111109)"/></g><path d="M640 682.83c0-3.3 2.7-6 6-6h348c3.3 0 6 2.7 6 6v168c0 3.32-2.7 6-6 6H646c-3.3 0-6-2.68-6-6z" stroke="#5e5e5e" stroke-width="3" fill="#fff"/><g><use xlink:href="#g" transform="matrix(1,0,0,1,652,688.8333333333335) translate(0 17.77777777777777)"/><use xlink:href="#h" transform="matrix(1,0,0,1,652,688.8333333333335) translate(24.691358024691347 17.77777777777777)"/><use xlink:href="#i" transform="matrix(1,0,0,1,652,688.8333333333335) translate(0 44.44444444444443)"/><use xlink:href="#j" transform="matrix(1,0,0,1,652,688.8333333333335) translate(24.691358024691347 44.44444444444443)"/><use xlink:href="#k" transform="matrix(1,0,0,1,652,688.8333333333335) translate(0 71.11111111111109)"/><use xlink:href="#l" transform="matrix(1,0,0,1,652,688.8333333333335) translate(24.691358024691347 71.11111111111109)"/><use xlink:href="#m" transform="matrix(1,0,0,1,652,688.8333333333335) translate(76.41975308641972 71.11111111111109)"/><use xlink:href="#n" transform="matrix(1,0,0,1,652,688.8333333333335) translate(112.16049382716045 71.11111111111109)"/><use xlink:href="#o" transform="matrix(1,0,0,1,652,688.8333333333335) translate(0 97.77777777777774)"/><use xlink:href="#p" transform="matrix(1,0,0,1,652,688.8333333333335) translate(24.691358024691347 97.77777777777774)"/><use xlink:href="#q" transform="matrix(1,0,0,1,652,688.8333333333335) translate(85.12345679012341 97.77777777777774)"/><use xlink:href="#r" transform="matrix(1,0,0,1,652,688.8333333333335) translate(0 124.4444444444444)"/><use xlink:href="#s" transform="matrix(1,0,0,1,652,688.8333333333335) translate(24.691358024691347 124.4444444444444)"/></g><path d="M460 742.83c0-3.3 2.7-6 6-6h128c3.3 0 6 2.7 6 6v8c0 3.32-2.7 6-6 6H466c-3.3 0-6-2.68-6-6z" stroke="#000" stroke-opacity="0" stroke-width="3" fill="#fff" fill-opacity="0"/><g><use xlink:href="#S" transform="matrix(1,0,0,1,465,741.8333333333335) translate(0 17.77777777777777)"/></g><path d="M1100 682.83c0-3.3 2.7-6 6-6h208c3.3 0 6 2.7 6 6v168c0 3.32-2.7 6-6 6h-208c-3.3 0-6-2.68-6-6z" stroke="#5e5e5e" stroke-width="3" fill="#fff"/><g><use xlink:href="#T" transform="matrix(1,0,0,1,1112,688.8333333333335) translate(0 17.77777777777777)"/><use xlink:href="#U" transform="matrix(1,0,0,1,1112,688.8333333333335) translate(24.691358024691347 17.77777777777777)"/><use xlink:href="#V" transform="matrix(1,0,0,1,1112,688.8333333333335) translate(0 44.44444444444443)"/><use xlink:href="#W" transform="matrix(1,0,0,1,1112,688.8333333333335) translate(24.691358024691347 44.44444444444443)"/><use xlink:href="#X" transform="matrix(1,0,0,1,1112,688.8333333333335) translate(0 71.11111111111109)"/></g><path d="M1360 684.33c0-3.3 2.7-6 6-6h208c3.3 0 6 2.7 6 6v168c0 3.32-2.7 6-6 6h-208c-3.3 0-6-2.68-6-6z" stroke="#5e5e5e" stroke-width="3" fill="#fff"/><g><use xlink:href="#Y" transform="matrix(1,0,0,1,1372,690.3333333333334) translate(0 17.77777777777777)"/><use xlink:href="#Z" transform="matrix(1,0,0,1,1372,690.3333333333334) translate(24.691358024691347 17.77777777777777)"/><use xlink:href="#aa" transform="matrix(1,0,0,1,1372,690.3333333333334) translate(0 44.44444444444443)"/><use xlink:href="#ab" transform="matrix(1,0,0,1,1372,690.3333333333334) translate(24.691358024691347 44.44444444444443)"/><use xlink:href="#ac" transform="matrix(1,0,0,1,1372,690.3333333333334) translate(0 71.11111111111109)"/></g><path d="M1620 684.33c0-3.3 2.7-6 6-6h208c3.3 0 6 2.7 6 6v168c0 3.32-2.7 6-6 6h-208c-3.3 0-6-2.68-6-6z" stroke="#5e5e5e" stroke-width="3" fill="#fff"/><path d="M477.16 856.83h123.6M477.2 856.83h-1.04" stroke="#5e5e5e" stroke-width="2" fill="none"/><path d="M616 856.83l-14.25 4.64v-9.27z" stroke="#5e5e5e" stroke-width="2" fill="#5e5e5e"/><path d="M478.25 856.83h-19M478.22 856.83h1.03" stroke="#5e5e5e" stroke-width="2" fill="none"/><path d="M444 856.83l14.25-4.63v9.27z" stroke="#5e5e5e" stroke-width="2" fill="#5e5e5e"/><path d="M60 962.67c0-3.32 2.7-6 6-6h348c3.3 0 6 2.68 6 6v168c0 3.3-2.7 6-6 6H66c-3.3 0-6-2.7-6-6z" stroke="#5e5e5e" stroke-width="3" fill="#fff"/><g><use xlink:href="#g" transform="matrix(1,0,0,1,72,968.6666666666667) translate(0 17.77777777777777)"/><use xlink:href="#h" transform="matrix(1,0,0,1,72,968.6666666666667) translate(24.691358024691347 17.77777777777777)"/><use xlink:href="#i" transform="matrix(1,0,0,1,72,968.6666666666667) translate(0 44.44444444444443)"/><use xlink:href="#j" transform="matrix(1,0,0,1,72,968.6666666666667) translate(24.691358024691347 44.44444444444443)"/><use xlink:href="#k" transform="matrix(1,0,0,1,72,968.6666666666667) translate(0 71.11111111111109)"/><use xlink:href="#l" transform="matrix(1,0,0,1,72,968.6666666666667) translate(24.691358024691347 71.11111111111109)"/><use xlink:href="#m" transform="matrix(1,0,0,1,72,968.6666666666667) translate(76.41975308641972 71.11111111111109)"/><use xlink:href="#n" transform="matrix(1,0,0,1,72,968.6666666666667) translate(112.16049382716045 71.11111111111109)"/><use xlink:href="#o" transform="matrix(1,0,0,1,72,968.6666666666667) translate(0 97.77777777777774)"/><use xlink:href="#p" transform="matrix(1,0,0,1,72,968.6666666666667) translate(24.691358024691347 97.77777777777774)"/><use xlink:href="#q" transform="matrix(1,0,0,1,72,968.6666666666667) translate(85.12345679012341 97.77777777777774)"/><use xlink:href="#r" transform="matrix(1,0,0,1,72,968.6666666666667) translate(0 124.4444444444444)"/><use xlink:href="#s" transform="matrix(1,0,0,1,72,968.6666666666667) translate(24.691358024691347 124.4444444444444)"/></g><path d="M640 962.67c0-3.32 2.7-6 6-6h348c3.3 0 6 2.68 6 6v168c0 3.3-2.7 6-6 6H646c-3.3 0-6-2.7-6-6z" stroke="#5e5e5e" stroke-width="3" fill="#fff"/><g><use xlink:href="#k" transform="matrix(1,0,0,1,652,968.6666666666667) translate(0 17.77777777777777)"/><use xlink:href="#l" transform="matrix(1,0,0,1,652,968.6666666666667) translate(24.691358024691347 17.77777777777777)"/><use xlink:href="#m" transform="matrix(1,0,0,1,652,968.6666666666667) translate(76.41975308641972 17.77777777777777)"/><use xlink:href="#n" transform="matrix(1,0,0,1,652,968.6666666666667) translate(112.16049382716045 17.77777777777777)"/><use xlink:href="#o" transform="matrix(1,0,0,1,652,968.6666666666667) translate(0 44.44444444444443)"/><use xlink:href="#p" transform="matrix(1,0,0,1,652,968.6666666666667) translate(24.691358024691347 44.44444444444443)"/><use xlink:href="#q" transform="matrix(1,0,0,1,652,968.6666666666667) translate(85.12345679012341 44.44444444444443)"/><use xlink:href="#r" transform="matrix(1,0,0,1,652,968.6666666666667) translate(0 71.11111111111109)"/><use xlink:href="#s" transform="matrix(1,0,0,1,652,968.6666666666667) translate(24.691358024691347 71.11111111111109)"/></g><path d="M460 1022.67c0-3.32 2.7-6 6-6h128c3.3 0 6 2.68 6 6v8c0 3.3-2.7 6-6 6H466c-3.3 0-6-2.7-6-6z" stroke="#000" stroke-opacity="0" stroke-width="3" fill="#fff" fill-opacity="0"/><g><use xlink:href="#ad" transform="matrix(1,0,0,1,465,1021.6666666666667) translate(0 17.77777777777777)"/></g><path d="M1100 962.67c0-3.32 2.7-6 6-6h208c3.3 0 6 2.68 6 6v168c0 3.3-2.7 6-6 6h-208c-3.3 0-6-2.7-6-6z" stroke="#5e5e5e" stroke-width="3" fill="#fff"/><g><use xlink:href="#T" transform="matrix(1,0,0,1,1112,968.6666666666667) translate(0 17.77777777777777)"/><use xlink:href="#U" transform="matrix(1,0,0,1,1112,968.6666666666667) translate(24.691358024691347 17.77777777777777)"/><use xlink:href="#V" transform="matrix(1,0,0,1,1112,968.6666666666667) translate(0 44.44444444444443)"/><use xlink:href="#W" transform="matrix(1,0,0,1,1112,968.6666666666667) translate(24.691358024691347 44.44444444444443)"/><use xlink:href="#X" transform="matrix(1,0,0,1,1112,968.6666666666667) translate(0 71.11111111111109)"/></g><path d="M1100 962.67c0-3.32 2.7-6 6-6h208c3.3 0 6 2.68 6 6v168c0 3.3-2.7 6-6 6h-208c-3.3 0-6-2.7-6-6z" stroke="#5e5e5e" stroke-width="3" fill="#fff"/><g><use xlink:href="#Y" transform="matrix(1,0,0,1,1112,968.6666666666667) translate(0 17.77777777777777)"/><use xlink:href="#Z" transform="matrix(1,0,0,1,1112,968.6666666666667) translate(24.691358024691347 17.77777777777777)"/><use xlink:href="#aa" transform="matrix(1,0,0,1,1112,968.6666666666667) translate(0 44.44444444444443)"/><use xlink:href="#ab" transform="matrix(1,0,0,1,1112,968.6666666666667) translate(24.691358024691347 44.44444444444443)"/><use xlink:href="#ac" transform="matrix(1,0,0,1,1112,968.6666666666667) translate(0 71.11111111111109)"/></g><path d="M1620 964.17c0-3.32 2.7-6 6-6h208c3.3 0 6 2.68 6 6v168c0 3.3-2.7 6-6 6h-208c-3.3 0-6-2.7-6-6z" stroke="#5e5e5e" stroke-width="3" fill="#fff"/><path d="M477.16 1136.67h123.6M477.2 1136.67h-1.04" stroke="#5e5e5e" stroke-width="2" fill="none"/><path d="M616 1136.67l-14.25 4.63v-9.27z" stroke="#5e5e5e" stroke-width="2" fill="#5e5e5e"/><path d="M478.25 1136.67h-19M478.22 1136.67h1.03" stroke="#5e5e5e" stroke-width="2" fill="none"/><path d="M444 1136.67l14.25-4.64v9.27z" stroke="#5e5e5e" stroke-width="2" fill="#5e5e5e"/><path d="M1360 962.67c0-3.32 2.7-6 6-6h208c3.3 0 6 2.68 6 6v168c0 3.3-2.7 6-6 6h-208c-3.3 0-6-2.7-6-6z" stroke="#5e5e5e" stroke-width="3" fill="#fff"/><g><use xlink:href="#T" transform="matrix(1,0,0,1,1372,968.6666666666667) translate(0 17.77777777777777)"/><use xlink:href="#U" transform="matrix(1,0,0,1,1372,968.6666666666667) translate(24.691358024691347 17.77777777777777)"/><use xlink:href="#V" transform="matrix(1,0,0,1,1372,968.6666666666667) translate(0 44.44444444444443)"/><use xlink:href="#W" transform="matrix(1,0,0,1,1372,968.6666666666667) translate(24.691358024691347 44.44444444444443)"/><use xlink:href="#X" transform="matrix(1,0,0,1,1372,968.6666666666667) translate(0 71.11111111111109)"/></g><path d="M60 66c0-3.3 2.7-6 6-6h168c3.3 0 6 2.7 6 6v51.33c0 3.32-2.7 6-6 6H66c-3.3 0-6-2.68-6-6z" stroke="#000" stroke-opacity="0" stroke-width="3" fill="#fff" fill-opacity="0"/><g><use xlink:href="#ae" transform="matrix(1,0,0,1,65,65) translate(4.290123456790127 31.27777777777778)"/><use xlink:href="#af" transform="matrix(1,0,0,1,65,65) translate(104.16666666666667 31.27777777777778)"/></g><path d="M640 62.67c0-3.32 2.7-6 6-6h168c3.3 0 6 2.68 6 6V114c0 3.3-2.7 6-6 6H646c-3.3 0-6-2.7-6-6z" stroke="#000" stroke-opacity="0" stroke-width="3" fill="#fff" fill-opacity="0"/><g><use xlink:href="#ag" transform="matrix(1,0,0,1,645,61.66666666666667) translate(11.141975308641975 31.27777777777778)"/><use xlink:href="#af" transform="matrix(1,0,0,1,645,61.66666666666667) translate(97.31481481481481 31.27777777777778)"/></g><path d="M440 62.67c0-3.32 2.7-6 6-6h88c3.3 0 6 2.68 6 6V114c0 3.3-2.7 6-6 6h-88c-3.3 0-6-2.7-6-6z" stroke="#000" stroke-opacity="0" stroke-width="3" fill="#fff" fill-opacity="0"/><g><use xlink:href="#ah" transform="matrix(1,0,0,1,445,61.66666666666667) translate(17.962962962962965 31.27777777777778)"/></g><defs><path fill="#333" d="M101-251c68 0 85 55 85 127S166 4 100 4C33 4 14-52 14-124c0-73 17-127 87-127zm-1 229c47 0 54-49 54-102s-4-102-53-102c-51 0-55 48-55 102 0 53 5 102 54 102" id="ai"/><path fill="#333" d="M33 0v-38h34V0H33" id="aj"/><g id="a"><use transform="matrix(0.06172839506172839,0,0,0.06172839506172839,0,0)" xlink:href="#ai"/><use transform="matrix(0.06172839506172839,0,0,0.06172839506172839,12.345679012345679,0)" xlink:href="#aj"/></g><path fill="#333" d="M59-47c-2 24 18 29 38 22v24C64 9 27 4 27-40v-127H5v-23h24l9-43h21v43h35v23H59v120" id="ak"/><path fill="#333" d="M100-194c63 0 86 42 84 106H49c0 40 14 67 53 68 26 1 43-12 49-29l28 8c-11 28-37 45-77 45C44 4 14-33 15-96c1-61 26-98 85-98zm52 81c6-60-76-77-97-28-3 7-6 17-6 28h103" id="al"/><path fill="#333" d="M135-143c-3-34-86-38-87 0 15 53 115 12 119 90S17 21 10-45l28-5c4 36 97 45 98 0-10-56-113-15-118-90-4-57 82-63 122-42 12 7 21 19 24 35" id="am"/><g id="b"><use transform="matrix(0.06172839506172839,0,0,0.06172839506172839,0,0)" xlink:href="#ak"/><use transform="matrix(0.06172839506172839,0,0,0.06172839506172839,6.172839506172839,0)" xlink:href="#al"/><use transform="matrix(0.06172839506172839,0,0,0.06172839506172839,18.51851851851852,0)" xlink:href="#am"/><use transform="matrix(0.06172839506172839,0,0,0.06172839506172839,29.62962962962963,0)" xlink:href="#ak"/></g><path fill="#333" d="M27 0v-27h64v-190l-56 39v-29l58-41h29v221h61V0H27" id="an"/><g id="c"><use transform="matrix(0.06172839506172839,0,0,0.06172839506172839,0,0)" xlink:href="#an"/><use transform="matrix(0.06172839506172839,0,0,0.06172839506172839,12.345679012345679,0)" xlink:href="#aj"/></g><path fill="#333" d="M115-194c53 0 69 39 70 98 0 66-23 100-70 100C84 3 66-7 56-30L54 0H23l1-261h32v101c10-23 28-34 59-34zm-8 174c40 0 45-34 45-75 0-40-5-75-45-74-42 0-51 32-51 76 0 43 10 73 51 73" id="ao"/><path fill="#333" d="M84 4C-5 8 30-112 23-190h32v120c0 31 7 50 39 49 72-2 45-101 50-169h31l1 190h-30c-1-10 1-25-2-33-11 22-28 36-60 37" id="ap"/><g id="d"><use transform="matrix(0.06172839506172839,0,0,0.06172839506172839,0,0)" xlink:href="#ao"/><use transform="matrix(0.06172839506172839,0,0,0.06172839506172839,12.345679012345679,0)" xlink:href="#ap"/><use transform="matrix(0.06172839506172839,0,0,0.06172839506172839,24.691358024691358,0)" xlink:href="#ao"/><use transform="matrix(0.06172839506172839,0,0,0.06172839506172839,37.03703703703704,0)" xlink:href="#ao"/><use transform="matrix(0.06172839506172839,0,0,0.06172839506172839,49.382716049382715,0)" xlink:href="#ap"/></g><path fill="#333" d="M101-251c82-7 93 87 43 132L82-64C71-53 59-42 53-27h129V0H18c2-99 128-94 128-182 0-28-16-43-45-43s-46 15-49 41l-32-3c6-41 34-60 81-64" id="aq"/><g id="e"><use transform="matrix(0.06172839506172839,0,0,0.06172839506172839,0,0)" xlink:href="#aq"/><use transform="matrix(0.06172839506172839,0,0,0.06172839506172839,12.345679012345679,0)" xlink:href="#aj"/></g><path fill="#333" d="M100-194c62-1 85 37 85 99 1 63-27 99-86 99S16-35 15-95c0-66 28-99 85-99zM99-20c44 1 53-31 53-75 0-43-8-75-51-75s-53 32-53 75 10 74 51 75" id="ar"/><path fill="#333" d="M117-194c89-4 53 116 60 194h-32v-121c0-31-8-49-39-48C34-167 62-67 57 0H25l-1-190h30c1 10-1 24 2 32 11-22 29-35 61-36" id="as"/><path fill="#333" d="M179-190L93 31C79 59 56 82 12 73V49c39 6 53-20 64-50L1-190h34L92-34l54-156h33" id="at"/><g id="f"><use transform="matrix(0.06172839506172839,0,0,0.06172839506172839,0,0)" xlink:href="#am"/><use transform="matrix(0.06172839506172839,0,0,0.06172839506172839,11.11111111111111,0)" xlink:href="#ar"/><use transform="matrix(0.06172839506172839,0,0,0.06172839506172839,23.45679012345679,0)" xlink:href="#as"/><use transform="matrix(0.06172839506172839,0,0,0.06172839506172839,35.80246913580247,0)" xlink:href="#as"/><use transform="matrix(0.06172839506172839,0,0,0.06172839506172839,48.148148148148145,0)" xlink:href="#at"/></g><g id="g"><use transform="matrix(0.06172839506172837,0,0,0.06172839506172837,0,0)" xlink:href="#ai"/><use transform="matrix(0.06172839506172837,0,0,0.06172839506172837,12.345679012345673,0)" xlink:href="#aj"/></g><path fill="#333" d="M-5 72V49h209v23H-5" id="au"/><path fill="#333" d="M114-163C36-179 61-72 57 0H25l-1-190h30c1 12-1 29 2 39 6-27 23-49 58-41v29" id="av"/><path fill="#333" d="M115-194c55 1 70 41 70 98S169 2 115 4C84 4 66-9 55-30l1 105H24l-1-265h31l2 30c10-21 28-34 59-34zm-8 174c40 0 45-34 45-75s-6-73-45-74c-42 0-51 32-51 76 0 43 10 73 51 73" id="aw"/><path fill="#333" d="M24 0v-261h32V0H24" id="ax"/><path fill="#333" d="M141-36C126-15 110 5 73 4 37 3 15-17 15-53c-1-64 63-63 125-63 3-35-9-54-41-54-24 1-41 7-42 31l-33-3c5-37 33-52 76-52 45 0 72 20 72 64v82c-1 20 7 32 28 27v20c-31 9-61-2-59-35zM48-53c0 20 12 33 32 33 41-3 63-29 60-74-43 2-92-5-92 41" id="ay"/><path fill="#333" d="M96-169c-40 0-48 33-48 73s9 75 48 75c24 0 41-14 43-38l32 2c-6 37-31 61-74 61-59 0-76-41-82-99-10-93 101-131 147-64 4 7 5 14 7 22l-32 3c-4-21-16-35-41-35" id="az"/><path fill="#333" d="M85-194c31 0 48 13 60 33l-1-100h32l1 261h-30c-2-10 0-23-3-31C134-8 116 4 85 4 32 4 16-35 15-94c0-66 23-100 70-100zm9 24c-40 0-46 34-46 75 0 40 6 74 45 74 42 0 51-32 51-76 0-42-9-74-50-73" id="aA"/><g id="h"><use transform="matrix(0.06172839506172837,0,0,0.06172839506172837,0,0)" xlink:href="#ak"/><use transform="matrix(0.06172839506172837,0,0,0.06172839506172837,6.172839506172837,0)" xlink:href="#al"/><use transform="matrix(0.06172839506172837,0,0,0.06172839506172837,18.518518518518512,0)" xlink:href="#am"/><use transform="matrix(0.06172839506172837,0,0,0.06172839506172837,29.62962962962962,0)" xlink:href="#ak"/><use transform="matrix(0.06172839506172837,0,0,0.06172839506172837,35.802469135802454,0)" xlink:href="#au"/><use transform="matrix(0.06172839506172837,0,0,0.06172839506172837,48.148148148148124,0)" xlink:href="#av"/><use transform="matrix(0.06172839506172837,0,0,0.06172839506172837,55.4938271604938,0)" xlink:href="#al"/><use transform="matrix(0.06172839506172837,0,0,0.06172839506172837,67.83950617283948,0)" xlink:href="#aw"/><use transform="matrix(0.06172839506172837,0,0,0.06172839506172837,80.18518518518515,0)" xlink:href="#ax"/><use transform="matrix(0.06172839506172837,0,0,0.06172839506172837,85.06172839506169,0)" xlink:href="#ay"/><use transform="matrix(0.06172839506172837,0,0,0.06172839506172837,97.40740740740736,0)" xlink:href="#az"/><use transform="matrix(0.06172839506172837,0,0,0.06172839506172837,108.51851851851848,0)" xlink:href="#al"/><use transform="matrix(0.06172839506172837,0,0,0.06172839506172837,120.86419753086415,0)" xlink:href="#aA"/></g><g id="i"><use transform="matrix(0.06172839506172837,0,0,0.06172839506172837,0,0)" xlink:href="#an"/><use transform="matrix(0.06172839506172837,0,0,0.06172839506172837,12.345679012345673,0)" xlink:href="#aj"/></g><path fill="#333" d="M106-169C34-169 62-67 57 0H25v-261h32l-1 103c12-21 28-36 61-36 89 0 53 116 60 194h-32v-121c2-32-8-49-39-48" id="aB"/><path fill="#333" d="M24-231v-30h32v30H24zM24 0v-190h32V0H24" id="aC"/><g id="j"><use transform="matrix(0.06172839506172837,0,0,0.06172839506172837,0,0)" xlink:href="#am"/><use transform="matrix(0.06172839506172837,0,0,0.06172839506172837,11.111111111111107,0)" xlink:href="#aB"/><use transform="matrix(0.06172839506172837,0,0,0.06172839506172837,23.45679012345678,0)" xlink:href="#aC"/><use transform="matrix(0.06172839506172837,0,0,0.06172839506172837,28.33333333333332,0)" xlink:href="#am"/><use transform="matrix(0.06172839506172837,0,0,0.06172839506172837,39.44444444444443,0)" xlink:href="#aB"/></g><g id="k"><use transform="matrix(0.06172839506172837,0,0,0.06172839506172837,0,0)" xlink:href="#aq"/><use transform="matrix(0.06172839506172837,0,0,0.06172839506172837,12.345679012345673,0)" xlink:href="#aj"/></g><path fill="#333" d="M24-231v-30h32v30H24zM-9 49c24 4 33-6 33-30v-209h32V24c2 40-23 58-65 49V49" id="aD"/><path fill="#333" d="M108 0H70L1-190h34L89-25l56-165h34" id="aE"/><g id="l"><use transform="matrix(0.06172839506172837,0,0,0.06172839506172837,0,0)" xlink:href="#aD"/><use transform="matrix(0.06172839506172837,0,0,0.06172839506172837,4.876543209876541,0)" xlink:href="#ay"/><use transform="matrix(0.06172839506172837,0,0,0.06172839506172837,17.222222222222214,0)" xlink:href="#aE"/><use transform="matrix(0.06172839506172837,0,0,0.06172839506172837,28.33333333333332,0)" xlink:href="#aC"/><use transform="matrix(0.06172839506172837,0,0,0.06172839506172837,33.20987654320986,0)" xlink:href="#as"/></g><g id="m"><use transform="matrix(0.06172839506172837,0,0,0.06172839506172837,0,0)" xlink:href="#aA"/><use transform="matrix(0.06172839506172837,0,0,0.06172839506172837,12.345679012345673,0)" xlink:href="#aC"/><use transform="matrix(0.06172839506172837,0,0,0.06172839506172837,17.222222222222214,0)" xlink:href="#aA"/></g><path fill="#333" d="M177-190C167-65 218 103 67 71c-23-6-38-20-44-43l32-5c15 47 100 32 89-28v-30C133-14 115 1 83 1 29 1 15-40 15-95c0-56 16-97 71-98 29-1 48 16 59 35 1-10 0-23 2-32h30zM94-22c36 0 50-32 50-73 0-42-14-75-50-75-39 0-46 34-46 75s6 73 46 73" id="aF"/><g id="n"><use transform="matrix(0.06172839506172837,0,0,0.06172839506172837,0,0)" xlink:href="#as"/><use transform="matrix(0.06172839506172837,0,0,0.06172839506172837,12.345679012345673,0)" xlink:href="#ar"/><use transform="matrix(0.06172839506172837,0,0,0.06172839506172837,24.691358024691347,0)" xlink:href="#ak"/><use transform="matrix(0.06172839506172837,0,0,0.06172839506172837,30.864197530864182,0)" xlink:href="#aB"/><use transform="matrix(0.06172839506172837,0,0,0.06172839506172837,43.20987654320986,0)" xlink:href="#aC"/><use transform="matrix(0.06172839506172837,0,0,0.06172839506172837,48.0864197530864,0)" xlink:href="#as"/><use transform="matrix(0.06172839506172837,0,0,0.06172839506172837,60.43209876543207,0)" xlink:href="#aF"/></g><path fill="#333" d="M126-127c33 6 58 20 58 59 0 88-139 92-164 29-3-8-5-16-6-25l32-3c6 27 21 44 54 44 32 0 52-15 52-46 0-38-36-46-79-43v-28c39 1 72-4 72-42 0-27-17-43-46-43-28 0-47 15-49 41l-32-3c6-42 35-63 81-64 48-1 79 21 79 65 0 36-21 52-52 59" id="aG"/><g id="o"><use transform="matrix(0.06172839506172837,0,0,0.06172839506172837,0,0)" xlink:href="#aG"/><use transform="matrix(0.06172839506172837,0,0,0.06172839506172837,12.345679012345673,0)" xlink:href="#aj"/></g><g id="p"><use transform="matrix(0.06172839506172837,0,0,0.06172839506172837,0,0)" xlink:href="#aw"/><use transform="matrix(0.06172839506172837,0,0,0.06172839506172837,12.345679012345673,0)" xlink:href="#aC"/><use transform="matrix(0.06172839506172837,0,0,0.06172839506172837,17.222222222222214,0)" xlink:href="#aw"/><use transform="matrix(0.06172839506172837,0,0,0.06172839506172837,29.567901234567888,0)" xlink:href="#aw"/><use transform="matrix(0.06172839506172837,0,0,0.06172839506172837,41.91358024691356,0)" xlink:href="#ar"/></g><path fill="#333" d="M210-169c-67 3-38 105-44 169h-31v-121c0-29-5-50-35-48C34-165 62-65 56 0H25l-1-190h30c1 10-1 24 2 32 10-44 99-50 107 0 11-21 27-35 58-36 85-2 47 119 55 194h-31v-121c0-29-5-49-35-48" id="aH"/><g id="q"><use transform="matrix(0.06172839506172837,0,0,0.06172839506172837,0,0)" xlink:href="#am"/><use transform="matrix(0.06172839506172837,0,0,0.06172839506172837,11.111111111111107,0)" xlink:href="#aH"/><use transform="matrix(0.06172839506172837,0,0,0.06172839506172837,29.56790123456789,0)" xlink:href="#al"/><use transform="matrix(0.06172839506172837,0,0,0.06172839506172837,41.91358024691357,0)" xlink:href="#aF"/><use transform="matrix(0.06172839506172837,0,0,0.06172839506172837,54.25925925925924,0)" xlink:href="#aH"/><use transform="matrix(0.06172839506172837,0,0,0.06172839506172837,72.71604938271602,0)" xlink:href="#ay"/></g><path fill="#333" d="M155-56V0h-30v-56H8v-25l114-167h33v167h35v25h-35zm-30-156c-27 46-58 90-88 131h88v-131" id="aI"/><g id="r"><use transform="matrix(0.06172839506172837,0,0,0.06172839506172837,0,0)" xlink:href="#aI"/><use transform="matrix(0.06172839506172837,0,0,0.06172839506172837,12.345679012345673,0)" xlink:href="#aj"/></g><path fill="#333" d="M143 0L79-87 56-68V0H24v-261h32v163l83-92h37l-77 82L181 0h-38" id="aJ"/><g id="s"><use transform="matrix(0.06172839506172837,0,0,0.06172839506172837,0,0)" xlink:href="#aJ"/><use transform="matrix(0.06172839506172837,0,0,0.06172839506172837,11.111111111111107,0)" xlink:href="#al"/><use transform="matrix(0.06172839506172837,0,0,0.06172839506172837,23.45679012345678,0)" xlink:href="#aJ"/></g><path fill="#333" d="M23 0v-37h61v-169l-59 37v-38l62-41h46v211h57V0H23" id="aK"/><path fill="#333" d="M76-54c-1 42 2 86-19 110H24C36 42 46 24 48 0H25v-54h51" id="aL"/><path fill="#333" d="M139-81c0-46-55-55-73-27H18l9-140h149v37H72l-4 63c44-38 133-4 122 66C201 21 21 35 11-62l49-4c5 18 15 30 39 30 26 0 40-18 40-45" id="aM"/><path fill="#333" d="M190-63c-7 42-38 67-86 67-59 0-84-38-90-98-12-110 154-137 174-36l-49 2c-2-19-15-32-35-32-30 0-35 28-38 64-6 74 65 87 74 30" id="aN"/><g id="t"><use transform="matrix(0.06172839506172837,0,0,0.06172839506172837,0,0)" xlink:href="#aK"/><use transform="matrix(0.06172839506172837,0,0,0.06172839506172837,12.345679012345673,0)" xlink:href="#aL"/><use transform="matrix(0.06172839506172837,0,0,0.06172839506172837,18.518518518518512,0)" xlink:href="#aM"/><use transform="matrix(0.06172839506172837,0,0,0.06172839506172837,30.864197530864185,0)" xlink:href="#aN"/></g><g id="u"><use transform="matrix(0.04938271604938272,0,0,0.04938271604938272,0,0)" xlink:href="#ai"/><use transform="matrix(0.04938271604938272,0,0,0.04938271604938272,9.876543209876544,0)" xlink:href="#aj"/></g><g id="v"><use transform="matrix(0.04938271604938272,0,0,0.04938271604938272,0,0)" xlink:href="#ak"/><use transform="matrix(0.04938271604938272,0,0,0.04938271604938272,4.938271604938272,0)" xlink:href="#al"/><use transform="matrix(0.04938271604938272,0,0,0.04938271604938272,14.814814814814817,0)" xlink:href="#am"/><use transform="matrix(0.04938271604938272,0,0,0.04938271604938272,23.703703703703706,0)" xlink:href="#ak"/><use transform="matrix(0.04938271604938272,0,0,0.04938271604938272,28.641975308641978,0)" xlink:href="#au"/><use transform="matrix(0.04938271604938272,0,0,0.04938271604938272,38.51851851851852,0)" xlink:href="#av"/><use transform="matrix(0.04938271604938272,0,0,0.04938271604938272,44.39506172839506,0)" xlink:href="#al"/><use transform="matrix(0.04938271604938272,0,0,0.04938271604938272,54.27160493827161,0)" xlink:href="#aw"/><use transform="matrix(0.04938271604938272,0,0,0.04938271604938272,64.14814814814815,0)" xlink:href="#ax"/><use transform="matrix(0.04938271604938272,0,0,0.04938271604938272,68.0493827160494,0)" xlink:href="#ay"/><use transform="matrix(0.04938271604938272,0,0,0.04938271604938272,77.92592592592594,0)" xlink:href="#az"/><use transform="matrix(0.04938271604938272,0,0,0.04938271604938272,86.81481481481482,0)" xlink:href="#al"/><use transform="matrix(0.04938271604938272,0,0,0.04938271604938272,96.69135802469137,0)" xlink:href="#aA"/></g><g id="w"><use transform="matrix(0.04938271604938272,0,0,0.04938271604938272,0,0)" xlink:href="#an"/><use transform="matrix(0.04938271604938272,0,0,0.04938271604938272,9.876543209876544,0)" xlink:href="#aj"/></g><g id="x"><use transform="matrix(0.04938271604938272,0,0,0.04938271604938272,0,0)" xlink:href="#am"/><use transform="matrix(0.04938271604938272,0,0,0.04938271604938272,8.88888888888889,0)" xlink:href="#aB"/><use transform="matrix(0.04938271604938272,0,0,0.04938271604938272,18.765432098765434,0)" xlink:href="#aC"/><use transform="matrix(0.04938271604938272,0,0,0.04938271604938272,22.666666666666668,0)" xlink:href="#am"/><use transform="matrix(0.04938271604938272,0,0,0.04938271604938272,31.555555555555557,0)" xlink:href="#aB"/></g><g id="y"><use transform="matrix(0.04938271604938272,0,0,0.04938271604938272,0,0)" xlink:href="#aq"/><use transform="matrix(0.04938271604938272,0,0,0.04938271604938272,9.876543209876544,0)" xlink:href="#aj"/></g><g id="z"><use transform="matrix(0.04938271604938272,0,0,0.04938271604938272,0,0)" xlink:href="#aD"/><use transform="matrix(0.04938271604938272,0,0,0.04938271604938272,3.901234567901235,0)" xlink:href="#ay"/><use transform="matrix(0.04938271604938272,0,0,0.04938271604938272,13.777777777777779,0)" xlink:href="#aE"/><use transform="matrix(0.04938271604938272,0,0,0.04938271604938272,22.666666666666668,0)" xlink:href="#aC"/><use transform="matrix(0.04938271604938272,0,0,0.04938271604938272,26.567901234567902,0)" xlink:href="#as"/></g><g id="A"><use transform="matrix(0.04938271604938272,0,0,0.04938271604938272,0,0)" xlink:href="#aA"/><use transform="matrix(0.04938271604938272,0,0,0.04938271604938272,9.876543209876544,0)" xlink:href="#aC"/><use transform="matrix(0.04938271604938272,0,0,0.04938271604938272,13.777777777777779,0)" xlink:href="#aA"/></g><g id="B"><use transform="matrix(0.04938271604938272,0,0,0.04938271604938272,0,0)" xlink:href="#as"/><use transform="matrix(0.04938271604938272,0,0,0.04938271604938272,9.876543209876544,0)" xlink:href="#ar"/><use transform="matrix(0.04938271604938272,0,0,0.04938271604938272,19.75308641975309,0)" xlink:href="#ak"/><use transform="matrix(0.04938271604938272,0,0,0.04938271604938272,24.69135802469136,0)" xlink:href="#aB"/><use transform="matrix(0.04938271604938272,0,0,0.04938271604938272,34.567901234567906,0)" xlink:href="#aC"/><use transform="matrix(0.04938271604938272,0,0,0.04938271604938272,38.46913580246914,0)" xlink:href="#as"/><use transform="matrix(0.04938271604938272,0,0,0.04938271604938272,48.345679012345684,0)" xlink:href="#aF"/></g><g id="C"><use transform="matrix(0.04938271604938272,0,0,0.04938271604938272,0,0)" xlink:href="#aG"/><use transform="matrix(0.04938271604938272,0,0,0.04938271604938272,9.876543209876544,0)" xlink:href="#aj"/></g><g id="D"><use transform="matrix(0.04938271604938272,0,0,0.04938271604938272,0,0)" xlink:href="#aw"/><use transform="matrix(0.04938271604938272,0,0,0.04938271604938272,9.876543209876544,0)" xlink:href="#aC"/><use transform="matrix(0.04938271604938272,0,0,0.04938271604938272,13.777777777777779,0)" xlink:href="#aw"/><use transform="matrix(0.04938271604938272,0,0,0.04938271604938272,23.654320987654323,0)" xlink:href="#aw"/><use transform="matrix(0.04938271604938272,0,0,0.04938271604938272,33.53086419753087,0)" xlink:href="#ar"/></g><g id="E"><use transform="matrix(0.04938271604938272,0,0,0.04938271604938272,0,0)" xlink:href="#am"/><use transform="matrix(0.04938271604938272,0,0,0.04938271604938272,8.88888888888889,0)" xlink:href="#aH"/><use transform="matrix(0.04938271604938272,0,0,0.04938271604938272,23.654320987654323,0)" xlink:href="#al"/><use transform="matrix(0.04938271604938272,0,0,0.04938271604938272,33.53086419753087,0)" xlink:href="#aF"/><use transform="matrix(0.04938271604938272,0,0,0.04938271604938272,43.40740740740741,0)" xlink:href="#aH"/><use transform="matrix(0.04938271604938272,0,0,0.04938271604938272,58.17283950617284,0)" xlink:href="#ay"/></g><g id="F"><use transform="matrix(0.04938271604938272,0,0,0.04938271604938272,0,0)" xlink:href="#aI"/><use transform="matrix(0.04938271604938272,0,0,0.04938271604938272,9.876543209876544,0)" xlink:href="#aj"/></g><g id="G"><use transform="matrix(0.04938271604938272,0,0,0.04938271604938272,0,0)" xlink:href="#aJ"/><use transform="matrix(0.04938271604938272,0,0,0.04938271604938272,8.88888888888889,0)" xlink:href="#al"/><use transform="matrix(0.04938271604938272,0,0,0.04938271604938272,18.765432098765434,0)" xlink:href="#aJ"/></g><path fill="#333" d="M182-182c0 78-84 86-111 141h115V0H12c-6-101 99-100 120-180 1-22-12-31-33-32-23 0-32 14-35 34l-49-3c5-45 32-70 84-70 51 0 83 22 83 69" id="aO"/><path fill="#333" d="M88-194c31-1 46 15 58 34l-1-101h50l1 261h-48c-2-10 0-23-3-31C134-8 116 4 84 4 32 4 16-41 15-95c0-56 19-97 73-99zm17 164c33 0 40-30 41-66 1-37-9-64-41-64s-38 30-39 65c0 43 13 65 39 65" id="aP"/><g id="H"><use transform="matrix(0.06172839506172837,0,0,0.06172839506172837,0,0)" xlink:href="#aK"/><use transform="matrix(0.06172839506172837,0,0,0.06172839506172837,12.345679012345673,0)" xlink:href="#aL"/><use transform="matrix(0.06172839506172837,0,0,0.06172839506172837,18.518518518518512,0)" xlink:href="#aO"/><use transform="matrix(0.06172839506172837,0,0,0.06172839506172837,30.864197530864185,0)" xlink:href="#aP"/></g><g id="I"><use transform="matrix(0.06172839506172839,0,0,0.06172839506172839,0,0)" xlink:href="#am"/><use transform="matrix(0.06172839506172839,0,0,0.06172839506172839,11.11111111111111,0)" xlink:href="#ar"/><use transform="matrix(0.06172839506172839,0,0,0.06172839506172839,23.45679012345679,0)" xlink:href="#as"/><use transform="matrix(0.06172839506172839,0,0,0.06172839506172839,35.80246913580247,0)" xlink:href="#as"/><use transform="matrix(0.06172839506172839,0,0,0.06172839506172839,48.148148148148145,0)" xlink:href="#at"/></g><g id="J"><use transform="matrix(0.06172839506172837,0,0,0.06172839506172837,0,0)" xlink:href="#aK"/><use transform="matrix(0.06172839506172837,0,0,0.06172839506172837,12.345679012345673,0)" xlink:href="#aL"/><use transform="matrix(0.06172839506172837,0,0,0.06172839506172837,18.518518518518512,0)" xlink:href="#aM"/><use transform="matrix(0.06172839506172837,0,0,0.06172839506172837,30.864197530864185,0)" xlink:href="#aN"/></g><path fill="#333" d="M238-95c0 69-44 99-111 99C63 4 22-25 22-93v-155h51v151c-1 38 19 59 55 60 90 1 49-130 58-211h52v153" id="aQ"/><path fill="#333" d="M135-194c87-1 58 113 63 194h-50c-7-57 23-157-34-157-59 0-34 97-39 157H25l-1-190h47c2 12-1 28 3 38 12-26 28-41 61-42" id="aR"/><path fill="#333" d="M110-194c64 0 96 36 96 99 0 64-35 99-97 99-61 0-95-36-95-99 0-62 34-99 96-99zm-1 164c35 0 45-28 45-65 0-40-10-65-43-65-34 0-45 26-45 65 0 36 10 65 43 65" id="aS"/><g id="K"><use transform="matrix(0.06172839506172839,0,0,0.06172839506172839,0,0)" xlink:href="#aQ"/><use transform="matrix(0.06172839506172839,0,0,0.06172839506172839,15.987654320987653,0)" xlink:href="#aR"/><use transform="matrix(0.06172839506172839,0,0,0.06172839506172839,29.50617283950617,0)" xlink:href="#aP"/><use transform="matrix(0.06172839506172839,0,0,0.06172839506172839,43.02469135802469,0)" xlink:href="#aS"/></g><path fill="#333" d="M137-138c1-29-70-34-71-4 15 46 118 7 119 86 1 83-164 76-172 9l43-7c4 19 20 25 44 25 33 8 57-30 24-41C81-84 22-81 20-136c-2-80 154-74 161-7" id="aT"/><path fill="#333" d="M115-3C79 11 28 4 28-45v-112H4v-33h27l15-45h31v45h36v33H77v99c-1 23 16 31 38 25v30" id="aU"/><path fill="#333" d="M133-34C117-15 103 5 69 4 32 3 11-16 11-54c-1-60 55-63 116-61 1-26-3-47-28-47-18 1-26 9-28 27l-52-2c7-38 36-58 82-57s74 22 75 68l1 82c-1 14 12 18 25 15v27c-30 8-71 5-69-32zm-48 3c29 0 43-24 42-57-32 0-66-3-65 30 0 17 8 27 23 27" id="aV"/><path fill="#333" d="M147 0L96-86 75-71V0H25v-261h50v150l67-79h53l-66 74L201 0h-54" id="aW"/><g id="L"><use transform="matrix(0.06172839506172839,0,0,0.06172839506172839,0,0)" xlink:href="#aT"/><use transform="matrix(0.06172839506172839,0,0,0.06172839506172839,12.345679012345679,0)" xlink:href="#aU"/><use transform="matrix(0.06172839506172839,0,0,0.06172839506172839,19.691358024691358,0)" xlink:href="#aV"/><use transform="matrix(0.06172839506172839,0,0,0.06172839506172839,32.03703703703704,0)" xlink:href="#aN"/><use transform="matrix(0.06172839506172839,0,0,0.06172839506172839,44.382716049382715,0)" xlink:href="#aW"/></g><path fill="#333" d="M240-174c0 40-23 61-54 70L253 0h-59l-57-94H76V0H24v-248c93 4 217-23 216 74zM76-134c48-2 112 12 112-38 0-48-66-32-112-35v73" id="aX"/><path fill="#333" d="M185-48c-13 30-37 53-82 52C43 2 14-33 14-96s30-98 90-98c62 0 83 45 84 108H66c0 31 8 55 39 56 18 0 30-7 34-22zm-45-69c5-46-57-63-70-21-2 6-4 13-4 21h74" id="aY"/><g id="M"><use transform="matrix(0.06172839506172839,0,0,0.06172839506172839,0,0)" xlink:href="#aX"/><use transform="matrix(0.06172839506172839,0,0,0.06172839506172839,15.987654320987653,0)" xlink:href="#aY"/><use transform="matrix(0.06172839506172839,0,0,0.06172839506172839,28.333333333333332,0)" xlink:href="#aP"/><use transform="matrix(0.06172839506172839,0,0,0.06172839506172839,41.85185185185185,0)" xlink:href="#aS"/></g><path fill="#333" d="M140-251c80 0 125 45 125 126S219 4 139 4C58 4 15-44 15-125s44-126 125-126zm-1 214c52 0 73-35 73-88 0-50-21-86-72-86-52 0-73 35-73 86s22 88 72 88" id="aZ"/><path fill="#333" d="M85 4C-2 5 27-109 22-190h50c7 57-23 150 33 157 60-5 35-97 40-157h50l1 190h-47c-2-12 1-28-3-38-12 25-28 42-61 42" id="ba"/><path fill="#333" d="M135-194c53 0 70 44 70 98 0 56-19 98-73 100-31 1-45-17-59-34 3 33 2 69 2 105H25l-1-265h48c2 10 0 23 3 31 11-24 29-35 60-35zM114-30c33 0 39-31 40-66 0-38-9-64-40-64-56 0-55 130 0 130" id="bb"/><g id="N"><use transform="matrix(0.06172839506172839,0,0,0.06172839506172839,0,0)" xlink:href="#aZ"/><use transform="matrix(0.06172839506172839,0,0,0.06172839506172839,17.28395061728395,0)" xlink:href="#ba"/><use transform="matrix(0.06172839506172839,0,0,0.06172839506172839,30.80246913580247,0)" xlink:href="#aU"/><use transform="matrix(0.06172839506172839,0,0,0.06172839506172839,38.148148148148145,0)" xlink:href="#bb"/><use transform="matrix(0.06172839506172839,0,0,0.06172839506172839,51.666666666666664,0)" xlink:href="#ba"/><use transform="matrix(0.06172839506172839,0,0,0.06172839506172839,65.18518518518518,0)" xlink:href="#aU"/></g><g id="O"><use transform="matrix(0.06172839506172837,0,0,0.06172839506172837,0,0)" xlink:href="#aK"/><use transform="matrix(0.06172839506172837,0,0,0.06172839506172837,12.345679012345673,0)" xlink:href="#aL"/><use transform="matrix(0.06172839506172837,0,0,0.06172839506172837,18.518518518518512,0)" xlink:href="#aM"/><use transform="matrix(0.06172839506172837,0,0,0.06172839506172837,30.864197530864185,0)" xlink:href="#bb"/></g><g id="P"><use transform="matrix(0.06172839506172837,0,0,0.06172839506172837,0,0)" xlink:href="#aJ"/><use transform="matrix(0.06172839506172837,0,0,0.06172839506172837,11.111111111111107,0)" xlink:href="#al"/><use transform="matrix(0.06172839506172837,0,0,0.06172839506172837,23.45679012345678,0)" xlink:href="#aJ"/></g><use transform="matrix(0.06172839506172837,0,0,0.06172839506172837,0,0)" xlink:href="#aj" id="Q"/><use transform="matrix(0.06172839506172837,0,0,0.06172839506172837,0,0)" xlink:href="#aj" id="R"/><g id="S"><use transform="matrix(0.06172839506172837,0,0,0.06172839506172837,0,0)" xlink:href="#aK"/><use transform="matrix(0.06172839506172837,0,0,0.06172839506172837,12.345679012345673,0)" xlink:href="#ba"/></g><path fill="#c92d39" d="M101-251c68 0 85 55 85 127S166 4 100 4C33 4 14-52 14-124c0-73 17-127 87-127zm-1 229c47 0 54-49 54-102s-4-102-53-102c-51 0-55 48-55 102 0 53 5 102 54 102" id="bc"/><path fill="#c92d39" d="M33 0v-38h34V0H33" id="bd"/><g id="T"><use transform="matrix(0.06172839506172837,0,0,0.06172839506172837,0,0)" xlink:href="#bc"/><use transform="matrix(0.06172839506172837,0,0,0.06172839506172837,12.345679012345673,0)" xlink:href="#bd"/><path fill="#c92d39" d="M-1.1-7.1h26.9v1.62H-1.1z"/></g><path fill="#c92d39" d="M59-47c-2 24 18 29 38 22v24C64 9 27 4 27-40v-127H5v-23h24l9-43h21v43h35v23H59v120" id="be"/><path fill="#c92d39" d="M100-194c63 0 86 42 84 106H49c0 40 14 67 53 68 26 1 43-12 49-29l28 8c-11 28-37 45-77 45C44 4 14-33 15-96c1-61 26-98 85-98zm52 81c6-60-76-77-97-28-3 7-6 17-6 28h103" id="bf"/><path fill="#c92d39" d="M135-143c-3-34-86-38-87 0 15 53 115 12 119 90S17 21 10-45l28-5c4 36 97 45 98 0-10-56-113-15-118-90-4-57 82-63 122-42 12 7 21 19 24 35" id="bg"/><path fill="#c92d39" d="M-5 72V49h209v23H-5" id="bh"/><path fill="#c92d39" d="M114-163C36-179 61-72 57 0H25l-1-190h30c1 12-1 29 2 39 6-27 23-49 58-41v29" id="bi"/><path fill="#c92d39" d="M115-194c55 1 70 41 70 98S169 2 115 4C84 4 66-9 55-30l1 105H24l-1-265h31l2 30c10-21 28-34 59-34zm-8 174c40 0 45-34 45-75s-6-73-45-74c-42 0-51 32-51 76 0 43 10 73 51 73" id="bj"/><path fill="#c92d39" d="M24 0v-261h32V0H24" id="bk"/><path fill="#c92d39" d="M141-36C126-15 110 5 73 4 37 3 15-17 15-53c-1-64 63-63 125-63 3-35-9-54-41-54-24 1-41 7-42 31l-33-3c5-37 33-52 76-52 45 0 72 20 72 64v82c-1 20 7 32 28 27v20c-31 9-61-2-59-35zM48-53c0 20 12 33 32 33 41-3 63-29 60-74-43 2-92-5-92 41" id="bl"/><path fill="#c92d39" d="M96-169c-40 0-48 33-48 73s9 75 48 75c24 0 41-14 43-38l32 2c-6 37-31 61-74 61-59 0-76-41-82-99-10-93 101-131 147-64 4 7 5 14 7 22l-32 3c-4-21-16-35-41-35" id="bm"/><path fill="#c92d39" d="M85-194c31 0 48 13 60 33l-1-100h32l1 261h-30c-2-10 0-23-3-31C134-8 116 4 85 4 32 4 16-35 15-94c0-66 23-100 70-100zm9 24c-40 0-46 34-46 75 0 40 6 74 45 74 42 0 51-32 51-76 0-42-9-74-50-73" id="bn"/><g id="U"><use transform="matrix(0.06172839506172837,0,0,0.06172839506172837,0,0)" xlink:href="#be"/><use transform="matrix(0.06172839506172837,0,0,0.06172839506172837,6.172839506172837,0)" xlink:href="#bf"/><use transform="matrix(0.06172839506172837,0,0,0.06172839506172837,18.518518518518512,0)" xlink:href="#bg"/><use transform="matrix(0.06172839506172837,0,0,0.06172839506172837,29.62962962962962,0)" xlink:href="#be"/><use transform="matrix(0.06172839506172837,0,0,0.06172839506172837,35.802469135802454,0)" xlink:href="#bh"/><use transform="matrix(0.06172839506172837,0,0,0.06172839506172837,48.148148148148124,0)" xlink:href="#bi"/><use transform="matrix(0.06172839506172837,0,0,0.06172839506172837,55.4938271604938,0)" xlink:href="#bf"/><use transform="matrix(0.06172839506172837,0,0,0.06172839506172837,67.83950617283948,0)" xlink:href="#bj"/><use transform="matrix(0.06172839506172837,0,0,0.06172839506172837,80.18518518518515,0)" xlink:href="#bk"/><use transform="matrix(0.06172839506172837,0,0,0.06172839506172837,85.06172839506169,0)" xlink:href="#bl"/><use transform="matrix(0.06172839506172837,0,0,0.06172839506172837,97.40740740740736,0)" xlink:href="#bm"/><use transform="matrix(0.06172839506172837,0,0,0.06172839506172837,108.51851851851848,0)" xlink:href="#bf"/><use transform="matrix(0.06172839506172837,0,0,0.06172839506172837,120.86419753086415,0)" xlink:href="#bn"/><path fill="#c92d39" d="M-1.1-7.1H134.3v1.62H-1.1z"/></g><path fill="#c92d39" d="M27 0v-27h64v-190l-56 39v-29l58-41h29v221h61V0H27" id="bo"/><g id="V"><use transform="matrix(0.06172839506172837,0,0,0.06172839506172837,0,0)" xlink:href="#bo"/><use transform="matrix(0.06172839506172837,0,0,0.06172839506172837,12.345679012345673,0)" xlink:href="#bd"/><path fill="#c92d39" d="M-1.1-7.1h26.9v1.62H-1.1z"/></g><path fill="#c92d39" d="M106-169C34-169 62-67 57 0H25v-261h32l-1 103c12-21 28-36 61-36 89 0 53 116 60 194h-32v-121c2-32-8-49-39-48" id="bp"/><path fill="#c92d39" d="M24-231v-30h32v30H24zM24 0v-190h32V0H24" id="bq"/><g id="W"><use transform="matrix(0.06172839506172837,0,0,0.06172839506172837,0,0)" xlink:href="#bg"/><use transform="matrix(0.06172839506172837,0,0,0.06172839506172837,11.111111111111107,0)" xlink:href="#bp"/><use transform="matrix(0.06172839506172837,0,0,0.06172839506172837,23.45679012345678,0)" xlink:href="#bq"/><use transform="matrix(0.06172839506172837,0,0,0.06172839506172837,28.33333333333332,0)" xlink:href="#bg"/><use transform="matrix(0.06172839506172837,0,0,0.06172839506172837,39.44444444444443,0)" xlink:href="#bp"/><path fill="#c92d39" d="M-1.1-7.1h54v1.62h-54z"/></g><path fill="#c92d39" d="M23 0v-37h61v-169l-59 37v-38l62-41h46v211h57V0H23" id="br"/><path fill="#c92d39" d="M76-54c-1 42 2 86-19 110H24C36 42 46 24 48 0H25v-54h51" id="bs"/><path fill="#c92d39" d="M182-182c0 78-84 86-111 141h115V0H12c-6-101 99-100 120-180 1-22-12-31-33-32-23 0-32 14-35 34l-49-3c5-45 32-70 84-70 51 0 83 22 83 69" id="bt"/><path fill="#c92d39" d="M88-194c31-1 46 15 58 34l-1-101h50l1 261h-48c-2-10 0-23-3-31C134-8 116 4 84 4 32 4 16-41 15-95c0-56 19-97 73-99zm17 164c33 0 40-30 41-66 1-37-9-64-41-64s-38 30-39 65c0 43 13 65 39 65" id="bu"/><g id="X"><use transform="matrix(0.06172839506172837,0,0,0.06172839506172837,0,0)" xlink:href="#br"/><use transform="matrix(0.06172839506172837,0,0,0.06172839506172837,12.345679012345673,0)" xlink:href="#bs"/><use transform="matrix(0.06172839506172837,0,0,0.06172839506172837,18.518518518518512,0)" xlink:href="#bt"/><use transform="matrix(0.06172839506172837,0,0,0.06172839506172837,30.864197530864185,0)" xlink:href="#bu"/><path fill="#c92d39" d="M-1.1-7.1h46.6v2.32H-1.1z"/></g><path d="M101-251c68 0 85 55 85 127S166 4 100 4C33 4 14-52 14-124c0-73 17-127 87-127zm-1 229c47 0 54-49 54-102s-4-102-53-102c-51 0-55 48-55 102 0 53 5 102 54 102" id="bv"/><path d="M33 0v-38h34V0H33" id="bw"/><g id="Y"><use transform="matrix(0.06172839506172837,0,0,0.06172839506172837,0,0)" xlink:href="#bv"/><use transform="matrix(0.06172839506172837,0,0,0.06172839506172837,12.345679012345673,0)" xlink:href="#bw"/></g><path d="M59-47c-2 24 18 29 38 22v24C64 9 27 4 27-40v-127H5v-23h24l9-43h21v43h35v23H59v120" id="bx"/><path d="M100-194c63 0 86 42 84 106H49c0 40 14 67 53 68 26 1 43-12 49-29l28 8c-11 28-37 45-77 45C44 4 14-33 15-96c1-61 26-98 85-98zm52 81c6-60-76-77-97-28-3 7-6 17-6 28h103" id="by"/><path d="M135-143c-3-34-86-38-87 0 15 53 115 12 119 90S17 21 10-45l28-5c4 36 97 45 98 0-10-56-113-15-118-90-4-57 82-63 122-42 12 7 21 19 24 35" id="bz"/><path d="M-5 72V49h209v23H-5" id="bA"/><path d="M114-163C36-179 61-72 57 0H25l-1-190h30c1 12-1 29 2 39 6-27 23-49 58-41v29" id="bB"/><path d="M115-194c55 1 70 41 70 98S169 2 115 4C84 4 66-9 55-30l1 105H24l-1-265h31l2 30c10-21 28-34 59-34zm-8 174c40 0 45-34 45-75s-6-73-45-74c-42 0-51 32-51 76 0 43 10 73 51 73" id="bC"/><path d="M24 0v-261h32V0H24" id="bD"/><path d="M141-36C126-15 110 5 73 4 37 3 15-17 15-53c-1-64 63-63 125-63 3-35-9-54-41-54-24 1-41 7-42 31l-33-3c5-37 33-52 76-52 45 0 72 20 72 64v82c-1 20 7 32 28 27v20c-31 9-61-2-59-35zM48-53c0 20 12 33 32 33 41-3 63-29 60-74-43 2-92-5-92 41" id="bE"/><path d="M96-169c-40 0-48 33-48 73s9 75 48 75c24 0 41-14 43-38l32 2c-6 37-31 61-74 61-59 0-76-41-82-99-10-93 101-131 147-64 4 7 5 14 7 22l-32 3c-4-21-16-35-41-35" id="bF"/><path d="M85-194c31 0 48 13 60 33l-1-100h32l1 261h-30c-2-10 0-23-3-31C134-8 116 4 85 4 32 4 16-35 15-94c0-66 23-100 70-100zm9 24c-40 0-46 34-46 75 0 40 6 74 45 74 42 0 51-32 51-76 0-42-9-74-50-73" id="bG"/><g id="Z"><use transform="matrix(0.06172839506172837,0,0,0.06172839506172837,0,0)" xlink:href="#bx"/><use transform="matrix(0.06172839506172837,0,0,0.06172839506172837,6.172839506172837,0)" xlink:href="#by"/><use transform="matrix(0.06172839506172837,0,0,0.06172839506172837,18.518518518518512,0)" xlink:href="#bz"/><use transform="matrix(0.06172839506172837,0,0,0.06172839506172837,29.62962962962962,0)" xlink:href="#bx"/><use transform="matrix(0.06172839506172837,0,0,0.06172839506172837,35.802469135802454,0)" xlink:href="#bA"/><use transform="matrix(0.06172839506172837,0,0,0.06172839506172837,48.148148148148124,0)" xlink:href="#bB"/><use transform="matrix(0.06172839506172837,0,0,0.06172839506172837,55.4938271604938,0)" xlink:href="#by"/><use transform="matrix(0.06172839506172837,0,0,0.06172839506172837,67.83950617283948,0)" xlink:href="#bC"/><use transform="matrix(0.06172839506172837,0,0,0.06172839506172837,80.18518518518515,0)" xlink:href="#bD"/><use transform="matrix(0.06172839506172837,0,0,0.06172839506172837,85.06172839506169,0)" xlink:href="#bE"/><use transform="matrix(0.06172839506172837,0,0,0.06172839506172837,97.40740740740736,0)" xlink:href="#bF"/><use transform="matrix(0.06172839506172837,0,0,0.06172839506172837,108.51851851851848,0)" xlink:href="#by"/><use transform="matrix(0.06172839506172837,0,0,0.06172839506172837,120.86419753086415,0)" xlink:href="#bG"/></g><path d="M27 0v-27h64v-190l-56 39v-29l58-41h29v221h61V0H27" id="bH"/><g id="aa"><use transform="matrix(0.06172839506172837,0,0,0.06172839506172837,0,0)" xlink:href="#bH"/><use transform="matrix(0.06172839506172837,0,0,0.06172839506172837,12.345679012345673,0)" xlink:href="#bw"/></g><path d="M106-169C34-169 62-67 57 0H25v-261h32l-1 103c12-21 28-36 61-36 89 0 53 116 60 194h-32v-121c2-32-8-49-39-48" id="bI"/><path d="M24-231v-30h32v30H24zM24 0v-190h32V0H24" id="bJ"/><g id="ab"><use transform="matrix(0.06172839506172837,0,0,0.06172839506172837,0,0)" xlink:href="#bz"/><use transform="matrix(0.06172839506172837,0,0,0.06172839506172837,11.111111111111107,0)" xlink:href="#bI"/><use transform="matrix(0.06172839506172837,0,0,0.06172839506172837,23.45679012345678,0)" xlink:href="#bJ"/><use transform="matrix(0.06172839506172837,0,0,0.06172839506172837,28.33333333333332,0)" xlink:href="#bz"/><use transform="matrix(0.06172839506172837,0,0,0.06172839506172837,39.44444444444443,0)" xlink:href="#bI"/></g><path d="M23 0v-37h61v-169l-59 37v-38l62-41h46v211h57V0H23" id="bK"/><path d="M76-54c-1 42 2 86-19 110H24C36 42 46 24 48 0H25v-54h51" id="bL"/><path d="M182-182c0 78-84 86-111 141h115V0H12c-6-101 99-100 120-180 1-22-12-31-33-32-23 0-32 14-35 34l-49-3c5-45 32-70 84-70 51 0 83 22 83 69" id="bM"/><path d="M88-194c31-1 46 15 58 34l-1-101h50l1 261h-48c-2-10 0-23-3-31C134-8 116 4 84 4 32 4 16-41 15-95c0-56 19-97 73-99zm17 164c33 0 40-30 41-66 1-37-9-64-41-64s-38 30-39 65c0 43 13 65 39 65" id="bN"/><g id="ac"><use transform="matrix(0.06172839506172837,0,0,0.06172839506172837,0,0)" xlink:href="#bK"/><use transform="matrix(0.06172839506172837,0,0,0.06172839506172837,12.345679012345673,0)" xlink:href="#bL"/><use transform="matrix(0.06172839506172837,0,0,0.06172839506172837,18.518518518518512,0)" xlink:href="#bM"/><use transform="matrix(0.06172839506172837,0,0,0.06172839506172837,30.864197530864185,0)" xlink:href="#bN"/></g><path fill="#333" d="M135-150c-39-12-60 13-60 57V0H25l-1-190h47c2 13-1 29 3 40 6-28 27-53 61-41v41" id="bO"/><g id="ad"><use transform="matrix(0.06172839506172837,0,0,0.06172839506172837,0,0)" xlink:href="#aK"/><use transform="matrix(0.06172839506172837,0,0,0.06172839506172837,12.345679012345673,0)" xlink:href="#bO"/></g><path fill="#333" d="M24-248c93 1 206-16 204 79-1 75-69 88-152 82V0H24v-248zm52 121c47 0 100 7 100-41 0-47-54-39-100-39v80" id="bP"/><path fill="#333" d="M128 0H69L1-190h53L99-40l48-150h52" id="bQ"/><path fill="#333" d="M25-224v-37h50v37H25zM25 0v-190h50V0H25" id="bR"/><g id="ae"><use transform="matrix(0.06172839506172839,0,0,0.06172839506172839,0,0)" xlink:href="#bP"/><use transform="matrix(0.06172839506172839,0,0,0.06172839506172839,14.814814814814813,0)" xlink:href="#bO"/><use transform="matrix(0.06172839506172839,0,0,0.06172839506172839,23.456790123456788,0)" xlink:href="#aY"/><use transform="matrix(0.06172839506172839,0,0,0.06172839506172839,35.80246913580247,0)" xlink:href="#bQ"/><use transform="matrix(0.06172839506172839,0,0,0.06172839506172839,48.148148148148145,0)" xlink:href="#bR"/><use transform="matrix(0.06172839506172839,0,0,0.06172839506172839,54.32098765432099,0)" xlink:href="#aS"/><use transform="matrix(0.06172839506172839,0,0,0.06172839506172839,67.8395061728395,0)" xlink:href="#ba"/><use transform="matrix(0.06172839506172839,0,0,0.06172839506172839,81.35802469135803,0)" xlink:href="#aT"/></g><g id="af"><use transform="matrix(0.06172839506172839,0,0,0.06172839506172839,0,0)" xlink:href="#aY"/><use transform="matrix(0.06172839506172839,0,0,0.06172839506172839,12.345679012345679,0)" xlink:href="#aP"/><use transform="matrix(0.06172839506172839,0,0,0.06172839506172839,25.864197530864196,0)" xlink:href="#bR"/><use transform="matrix(0.06172839506172839,0,0,0.06172839506172839,32.03703703703704,0)" xlink:href="#aU"/><use transform="matrix(0.06172839506172839,0,0,0.06172839506172839,39.382716049382715,0)" xlink:href="#aS"/><use transform="matrix(0.06172839506172839,0,0,0.06172839506172839,52.901234567901234,0)" xlink:href="#bO"/></g><path fill="#333" d="M67-125c0 53 21 87 73 88 37 1 54-22 65-47l45 17C233-25 199 4 140 4 58 4 20-42 15-125 8-235 124-281 211-232c18 10 29 29 36 50l-46 12c-8-25-30-41-62-41-52 0-71 34-72 86" id="bS"/><g id="ag"><use transform="matrix(0.06172839506172839,0,0,0.06172839506172839,0,0)" xlink:href="#bS"/><use transform="matrix(0.06172839506172839,0,0,0.06172839506172839,15.987654320987653,0)" xlink:href="#ba"/><use transform="matrix(0.06172839506172839,0,0,0.06172839506172839,29.50617283950617,0)" xlink:href="#bO"/><use transform="matrix(0.06172839506172839,0,0,0.06172839506172839,38.148148148148145,0)" xlink:href="#bO"/><use transform="matrix(0.06172839506172839,0,0,0.06172839506172839,46.79012345679012,0)" xlink:href="#aY"/><use transform="matrix(0.06172839506172839,0,0,0.06172839506172839,59.1358024691358,0)" xlink:href="#aR"/><use transform="matrix(0.06172839506172839,0,0,0.06172839506172839,72.65432098765432,0)" xlink:href="#aU"/></g><path fill="#333" d="M24 0v-248h52V0H24" id="bT"/><g id="ah"><use transform="matrix(0.06172839506172839,0,0,0.06172839506172839,0,0)" xlink:href="#bT"/><use transform="matrix(0.06172839506172839,0,0,0.06172839506172839,6.172839506172839,0)" xlink:href="#aR"/><use transform="matrix(0.06172839506172839,0,0,0.06172839506172839,19.691358024691358,0)" xlink:href="#bb"/><use transform="matrix(0.06172839506172839,0,0,0.06172839506172839,33.20987654320987,0)" xlink:href="#ba"/><use transform="matrix(0.06172839506172839,0,0,0.06172839506172839,46.72839506172839,0)" xlink:href="#aU"/></g></defs></g></svg>